<?xml version="1.0" encoding="iso-8859-1"?>
<!-- Uploaded to: SVG Repo, www.svgrepo.com, Generator: SVG Repo Mixer Tools -->
<svg height="800px" width="800px" version="1.1" id="Layer_1" xmlns="http://www.w3.org/2000/svg" xmlns:xlink="http://www.w3.org/1999/xlink" 
	 viewBox="0 0 448.063 448.063" xml:space="preserve">
<g transform="translate(0 -1020.36)" shape-rendering="auto" image-rendering="auto" color-rendering="auto" color-interpolation="sRGB">
	<path style="fill:#5A3392;" d="M39.939,1020.422c-0.271-0.014-0.542-0.014-0.813,0c-4.025,0.459-7.072,3.854-7.094,7.905v13.938
		c0,34.182,13.647,67.016,37.813,91.188l3.906,3.906l11.437-11.406l12.375,12.375l-11.438,11.406l12.469,12.469l11.344-11.344
		l12.375,12.375l-11.344,11.344l69.781,69.783l-66.281,66.25c-0.474,0.486-0.883,1.033-1.219,1.623
		c-6.856-2.314-14.069-3.873-21.688-3.873h-51.5c-0.271-0.014-0.542-0.014-0.813,0c-4.401,0.396-7.646,4.287-7.249,8.688
		c0.172,1.912,1.026,3.697,2.405,5.031l34.25,34.25l-56.812,56.219c-7.548,7.465-11.813,17.727-11.813,28.344v27.531h27.5
		c10.616,0,20.91-4.264,28.375-11.813l56.188-56.846l34.281,34.281c3.108,3.141,8.174,3.168,11.315,0.059
		c1.533-1.516,2.388-3.588,2.373-5.744v-51.469c0-7.619-1.558-14.832-3.875-21.688c0.593-0.346,1.139-0.764,1.625-1.248
		l66.281-66.252l67.781,67.783c-2.25,6.775-3.781,13.857-3.781,21.375v51.5c0.02,4.418,3.618,7.984,8.036,7.965
		c2.078-0.01,4.071-0.826,5.557-2.279l34.344-34.313l56.25,56.875c7.465,7.547,17.603,11.813,28.219,11.813h27.531v-27.531
		c0-10.615-4.263-20.879-11.812-28.344l-56.75-56.219l34.281-34.25c3.158-3.09,3.213-8.156,0.122-11.314
		c-1.52-1.553-3.606-2.42-5.779-2.404H356.5h-0.032c-7.514,0-14.607,1.52-21.375,3.781l-67.656-67.781l68.5-68.5l-12.625-12.625
		l12.375-12.375l12.625,12.625l12.469-12.469l-12.719-12.688l12.375-12.375l12.719,12.686l5.188-5.188
		c24.179-24.18,37.656-56.992,37.656-91.188v-13.938c-0.02-4.419-3.619-7.984-8.037-7.964c-0.311,0.001-0.622,0.021-0.931,0.059
		c-1.736,0.228-3.35,1.018-4.594,2.25l-178.406,178.407L45.718,1022.673c-1.536-1.52-3.621-2.354-5.781-2.312L39.939,1020.422z"/>
	<g>
		<path style="fill:#FB9761;" d="M396.158,1051.673c-2.425,26.121-10.452,51.795-29.156,70.5L149.095,1340.05
			c-5.34-8.289-12.395-15.287-20.688-20.625l67.344-67.342c1.708-0.795,3.081-2.168,3.876-3.877l28.125-28.125
			c1.741-0.799,3.138-2.195,3.937-3.936l164.469-164.471L396.158,1051.673z"/>
		<path style="fill:#FB9761;" d="M80.002,1367.734l20.718,20.721l-56.281,56.873c-4.463,4.512-10.558,7.096-16.906,7.096H16.095
			v-11.471c0-6.348,2.455-12.441,6.969-16.906C23.064,1424.046,80.002,1367.734,80.002,1367.734z"/>
	</g>
	<path style="fill:#3CDEF6;" d="M52.002,1051.673l160.75,160.752l-20.718,20.719L81.158,1122.173
		C62.465,1103.478,54.427,1077.782,52.002,1051.673z"/>
	<path style="fill:#29A3EC;" d="M56.908,1077.734c4.502,16.563,11.9,32.084,24.25,44.438l110.875,110.969l10.156-10.156
		L56.908,1077.734z"/>
	<path style="fill:#3CDEF6;" d="M256.095,1255.767l63.625,63.623c-8.294,5.34-15.355,12.354-20.688,20.658l-63.625-63.625
		L256.095,1255.767L256.095,1255.767z"/>
	<path style="fill:#EE746C;" d="M396.158,1051.673l-164.469,164.469c-0.799,1.742-2.196,3.139-3.937,3.938l-28.125,28.125
		c-0.795,1.707-2.167,3.08-3.875,3.875l-67.344,67.344c4.127,2.654,7.92,5.754,11.375,9.188l251.719-251.719
		C393.681,1068.65,395.362,1060.239,396.158,1051.673L396.158,1051.673z"/>
	<path style="fill:#3CDEF6;" d="M368.064,1367.796l56.937,56.25c4.511,4.465,7.063,10.561,7.063,16.906v11.471h-11.562
		c-6.348,0-12.442-2.582-16.906-7.096l-56.25-56.813L368.064,1367.796z"/>
	<path style="fill:#29A3EC;" d="M245.501,1266.327l-10.094,10.094l63.625,63.623c2.606-4.057,5.626-7.791,9-11.188l-62.531-62.531
		L245.501,1266.327z"/>
	<g>
		<path style="fill:#FFFFFF;" d="M59.314,1324.39h32.25c29.075,0,52.437,23.455,52.437,52.531v32.125
			C144.001,1409.046,59.314,1324.39,59.314,1324.39z"/>
		<path style="fill:#FFFFFF;" d="M356.47,1324.39h32.375l-84.813,84.656v-32.125C304.033,1347.845,327.396,1324.39,356.47,1324.39z"
			/>
	</g>
	<path style="fill:#EE746C;" d="M80.001,1367.734l-56.937,56.313c-4.514,4.465-6.969,10.559-6.969,16.906v11.342l74.219-74.25
		l-10.312-10.313V1367.734z"/>
	<path style="fill:#29A3EC;" d="M357.501,1378.36l-10.156,10.154l56.25,56.813c4.465,4.512,10.558,7.094,16.906,7.094h11.094
		l-74.094-74.063V1378.36z"/>
	<g>
		<path style="fill:#EBFEFF;" d="M59.314,1324.39l42.344,42.344l27-27c-9.473-9.48-22.572-15.344-37.094-15.344
			C91.564,1324.39,59.314,1324.39,59.314,1324.39z"/>
		<path style="fill:#EBFEFF;" d="M319.158,1339.984c-9.355,9.482-15.125,22.504-15.125,36.938v32.125l42.125-42.063
			L319.158,1339.984z"/>
	</g>
</g>
</svg>